<svg height="442pt" viewBox="-6 0 442 442.00145" width="442pt" xmlns="http://www.w3.org/2000/svg" xmlns:xlink="http://www.w3.org/1999/xlink"><linearGradient id="a" gradientTransform="matrix(1 0 0 -1 -41.101392 479.00145)" gradientUnits="userSpaceOnUse" x1="256.002" x2="256.002" y1="487" y2="32.366"><stop offset="0" stop-color="#00efd1"/><stop offset="1" stop-color="#00acea"/></linearGradient><path d="m341.519531 88.296875c-13.953125-39.625-45.90625-70.261719-86.085937-82.53125-40.175782-12.269531-83.792969-4.714844-117.503906 20.351563-21.238282 15.8125-37.328126 37.550781-46.246094 62.484374-3.15625 1.480469-8.808594 3.792969-12.855469 5.453126-11.074219 4.535156-16.058594 6.667968-18.886719 8.6875-11.976562 8.117187-22.730468 17.898437-31.941406 29.050781-.097656.113281-.1875.230469-.277344.34375-26.535156 34.238281-34.625 79.300781-21.652344 120.628906 12.96875 41.328125 45.355469 73.6875 86.695313 86.625v72.609375c.019531 16.5625 13.4375 29.984375 30 30h183.726563c16.558593-.015625 29.980468-13.4375 30-30v-72.464844c55.207031-17.367187 93.304687-68.648437 93.304687-126.539062.070313-28.523438-9.152344-56.289063-26.269531-79.101563-15.710938-20.992187-37.289063-36.859375-62.007813-45.597656zm-35.03125 333.703125h-183.726562c-5.519531-.003906-9.992188-4.476562-10-10v-69.480469h62.0625.074219 141.597656v69.480469c-.007813 5.523438-4.484375 9.996094-10.007813 10zm19.664063-100.269531-2.089844.519531c-.300781.078125-.597656.167969-.886719.269531h-55.101562l16.453125-58.824219c1.484375-5.320312-1.621094-10.835937-6.9375-12.324218-5.320313-1.488282-10.835938 1.617187-12.324219 6.9375l-17.957031 64.210937h-22.410156v-81.519531c0-5.519531-4.476563-10-10-10-5.523438 0-10 4.480469-10 10v81.519531h-22.734376l-17.753906-54.609375c-1.710937-5.25-7.351562-8.125-12.605468-6.417968-5.25 1.707031-8.125 7.351562-6.417969 12.601562l15.746093 48.425781h-54.507812c-.304688-.105469-.617188-.199219-.9375-.277343-36.9375-9-66.8125-36.085938-79.378906-71.964844-12.570313-35.882813-6.121094-75.6875 17.128906-105.769532 8.003906-9.6875 17.355469-18.183593 27.761719-25.234374.105469-.066407.207031-.136719.3125-.214844 1.863281-1.152344 9.699219-4.363282 14.898437-6.492188 17.214844-7.054687 21.609375-8.855468 23.214844-14.601562 14.976562-46.527344 58.304688-78.046875 107.183594-77.964844 49.71875 0 92.800781 31.800781 107.207031 79.128906.972656 3.191406 3.46875 5.6875 6.65625 6.65625 46.589844 14.179688 79.128906 58.265625 79.128906 107.207032-.003906 50.652343-34.390625 95.351562-83.648437 108.738281zm0 0" fill="url(#a)"/></svg>